<mxfile host="app.diagrams.net" agent="Mozilla/5.0 (Windows NT 10.0; Win64; x64) AppleWebKit/537.36 (KHTML, like Gecko) Chrome/138.0.0.0 Safari/537.36" version="28.0.6">
  <diagram name="Page-1" id="Y2kSQRYXdS4J1IP7LwWU">
    <mxGraphModel dx="1042" dy="527" grid="1" gridSize="10" guides="1" tooltips="1" connect="1" arrows="1" fold="1" page="1" pageScale="1" pageWidth="850" pageHeight="1100" math="0" shadow="0">
      <root>
        <mxCell id="0" />
        <mxCell id="1" parent="0" />
        <mxCell id="Tild-ZfZIuAMxOJUrizk-14" style="edgeStyle=orthogonalEdgeStyle;rounded=0;orthogonalLoop=1;jettySize=auto;html=1;exitX=0.5;exitY=1;exitDx=0;exitDy=0;entryX=0.5;entryY=0;entryDx=0;entryDy=0;" edge="1" parent="1" source="Tild-ZfZIuAMxOJUrizk-15" target="Tild-ZfZIuAMxOJUrizk-17">
          <mxGeometry relative="1" as="geometry" />
        </mxCell>
        <mxCell id="Tild-ZfZIuAMxOJUrizk-15" value="Fetch Telemetric Data" style="rounded=0;whiteSpace=wrap;html=1;" vertex="1" parent="1">
          <mxGeometry x="330" y="40" width="180" height="60" as="geometry" />
        </mxCell>
        <mxCell id="Tild-ZfZIuAMxOJUrizk-16" style="edgeStyle=orthogonalEdgeStyle;rounded=0;orthogonalLoop=1;jettySize=auto;html=1;exitX=0.5;exitY=1;exitDx=0;exitDy=0;entryX=0.5;entryY=0;entryDx=0;entryDy=0;" edge="1" parent="1" source="Tild-ZfZIuAMxOJUrizk-17" target="Tild-ZfZIuAMxOJUrizk-19">
          <mxGeometry relative="1" as="geometry" />
        </mxCell>
        <mxCell id="Tild-ZfZIuAMxOJUrizk-17" value="Data is parsed,&amp;nbsp;&lt;span style=&quot;background-color: transparent; color: light-dark(rgb(0, 0, 0), rgb(255, 255, 255));&quot;&gt;preprocessed and vectorized&lt;/span&gt;" style="rounded=0;whiteSpace=wrap;html=1;" vertex="1" parent="1">
          <mxGeometry x="330" y="120" width="180" height="60" as="geometry" />
        </mxCell>
        <mxCell id="Tild-ZfZIuAMxOJUrizk-18" style="rounded=0;orthogonalLoop=1;jettySize=auto;html=1;exitX=0.85;exitY=0.95;exitDx=0;exitDy=0;exitPerimeter=0;" edge="1" parent="1" source="Tild-ZfZIuAMxOJUrizk-19" target="Tild-ZfZIuAMxOJUrizk-24">
          <mxGeometry relative="1" as="geometry" />
        </mxCell>
        <mxCell id="Tild-ZfZIuAMxOJUrizk-19" value="Vector embeddings&lt;div&gt;&amp;nbsp;stored to&amp;nbsp;&lt;span style=&quot;background-color: transparent; color: light-dark(rgb(0, 0, 0), rgb(255, 255, 255));&quot;&gt;vector store&lt;/span&gt;&lt;/div&gt;" style="shape=datastore;whiteSpace=wrap;html=1;" vertex="1" parent="1">
          <mxGeometry x="345" y="200" width="150" height="80" as="geometry" />
        </mxCell>
        <mxCell id="Tild-ZfZIuAMxOJUrizk-20" style="edgeStyle=orthogonalEdgeStyle;rounded=0;orthogonalLoop=1;jettySize=auto;html=1;exitX=0;exitY=0.75;exitDx=0;exitDy=0;" edge="1" parent="1" source="Tild-ZfZIuAMxOJUrizk-21" target="Tild-ZfZIuAMxOJUrizk-22">
          <mxGeometry relative="1" as="geometry" />
        </mxCell>
        <mxCell id="Tild-ZfZIuAMxOJUrizk-21" value="&lt;div&gt;&lt;br&gt;&lt;/div&gt;&lt;div&gt;&lt;span style=&quot;background-color: transparent; color: light-dark(rgb(0, 0, 0), rgb(255, 255, 255));&quot;&gt;&lt;br&gt;&lt;/span&gt;&lt;/div&gt;&lt;div&gt;&lt;span style=&quot;background-color: transparent; color: light-dark(rgb(0, 0, 0), rgb(255, 255, 255));&quot;&gt;User&lt;/span&gt;&lt;/div&gt;" style="shape=actor;whiteSpace=wrap;html=1;" vertex="1" parent="1">
          <mxGeometry x="400" y="400" width="40" height="50" as="geometry" />
        </mxCell>
        <mxCell id="Tild-ZfZIuAMxOJUrizk-22" value="Retrieve relevant documents based on user query" style="rounded=0;whiteSpace=wrap;html=1;" vertex="1" parent="1">
          <mxGeometry x="300" y="320" width="110" height="60" as="geometry" />
        </mxCell>
        <mxCell id="Tild-ZfZIuAMxOJUrizk-23" style="edgeStyle=orthogonalEdgeStyle;rounded=0;orthogonalLoop=1;jettySize=auto;html=1;exitX=0.5;exitY=1;exitDx=0;exitDy=0;entryX=1;entryY=0.75;entryDx=0;entryDy=0;" edge="1" parent="1" source="Tild-ZfZIuAMxOJUrizk-24" target="Tild-ZfZIuAMxOJUrizk-21">
          <mxGeometry relative="1" as="geometry" />
        </mxCell>
        <mxCell id="Tild-ZfZIuAMxOJUrizk-24" value="Augment the prompt with context and generate response" style="rounded=0;whiteSpace=wrap;html=1;" vertex="1" parent="1">
          <mxGeometry x="430" y="320" width="115" height="60" as="geometry" />
        </mxCell>
        <mxCell id="Tild-ZfZIuAMxOJUrizk-25" style="rounded=0;orthogonalLoop=1;jettySize=auto;html=1;exitX=0.5;exitY=0;exitDx=0;exitDy=0;entryX=0.15;entryY=0.95;entryDx=0;entryDy=0;entryPerimeter=0;" edge="1" parent="1" source="Tild-ZfZIuAMxOJUrizk-22" target="Tild-ZfZIuAMxOJUrizk-19">
          <mxGeometry relative="1" as="geometry" />
        </mxCell>
      </root>
    </mxGraphModel>
  </diagram>
</mxfile>
